Coordinates
version=1
nRows=4
nColumns=63
inDegrees=yes

Units are S.I. units (second, meters, Newtons, ...)
If the header above contains a line with 'inDegrees', this indicates whether rotational values are in degrees (yes) or radians (no).

endheader
time	pelvis_tilt	pelvis_list	pelvis_rotation	pelvis_tx	pelvis_ty	pelvis_tz	hip_flexion_r	hip_adduction_r	hip_rotation_r	knee_angle_r	knee_angle_r_beta	ankle_angle_r	subtalar_angle_r	mtp_angle_r	hip_flexion_l	hip_adduction_l	hip_rotation_l	knee_angle_l	knee_angle_l_beta	ankle_angle_l	subtalar_angle_l	mtp_angle_l	L5_S1_Flex_Ext	L5_S1_Lat_Bending	L5_S1_axial_rotation	L4_L5_Flex_Ext	L4_L5_Lat_Bending	L4_L5_axial_rotation	L3_L4_Flex_Ext	L3_L4_Lat_Bending	L3_L4_axial_rotation	L2_L3_Flex_Ext	L2_L3_Lat_Bending	L2_L3_axial_rotation	L1_L2_Flex_Ext	L1_L2_Lat_Bending	L1_L2_axial_rotation	L1_T12_Flex_Ext	L1_T12_Lat_Bending	L1_T12_axial_rotation	Abs_r3	Abs_r2	Abs_r1	Abs_t1	Abs_t2	neck_flexion	neck_bending	neck_rotation	arm_flex_r	arm_add_r	arm_rot_r	elbow_flex_r	pro_sup_r	wrist_flex_r	wrist_dev_r	arm_flex_l	arm_add_l	arm_rot_l	elbow_flex_l	pro_sup_l	wrist_flex_l	wrist_dev_l
      0.00000000	     -0.24584333	     -7.10508593	     95.78030367	      0.31286161	      0.92256847	      0.65875857	      2.27878708	      1.63509723	    -13.52217548	     15.24901261	      0.26614548	     35.91006787	     19.00782032	      0.00000000	     -3.09918796	     -4.53264682	     17.26200423	      0.32005925	      0.00558609	     26.27538688	    -12.80399098	      0.00000000	     -0.28589552	      0.21555669	      0.33910520	     -0.53093657	      0.28669040	      0.36029927	     -0.46969775	      0.52410454	      0.36029927	     -0.32674999	      0.52410454	      0.29671705	     -0.26548258	      0.43956320	      0.27552297	     -0.16336070	      0.33389731	      0.25432890	     -2.04212312	      2.43842040	      1.88600137	      0.00000000	      0.00000000	     14.75633214	     -4.74217872	     -8.38856660	      8.52762760	     -8.85693121	     41.21567800	     60.47677911	     85.14753286	     -1.17929431	      5.85475307	      6.38752511	     -8.05648620	     34.11549097	     65.64839095	     67.80408609	     -9.33454186	     19.57670769
      0.01666667	     -0.15086257	     -7.08757505	     94.09181075	      0.31364696	      0.92176137	      0.65946948	      2.30154498	      1.66500938	    -11.86427601	     15.29715415	      0.26698571	     35.63908965	     18.92844616	      0.00000000	     -3.67050655	     -4.44771484	     15.28544253	      0.36521143	      0.00637414	     24.96203992	    -13.90542072	      0.00000000	     -0.26535772	      0.24958432	      0.71088682	     -0.49279583	      0.33194715	      0.75531724	     -0.43595620	      0.60683932	      0.75531724	     -0.30327734	      0.60683932	      0.62202596	     -0.24641118	      0.50895235	      0.57759554	     -0.15162540	      0.38660611	      0.53316511	     -1.89542369	      2.82334776	      3.95373920	      0.00000000	      0.00000000	     13.88243330	     -5.42172054	     -9.04233918	      7.21590478	     -8.53186411	     39.05659489	     59.99742602	     84.69150448	      1.24694131	      7.85537039	      6.26879338	     -7.84311829	     35.57728059	     64.54721932	     66.81868892	    -10.43609340	     21.61788524
      0.03333333	     -0.09170077	     -7.13132201	     92.64663142	      0.31450494	      0.92106015	      0.65994174	      2.33020046	      1.70090452	    -10.37465894	     15.22405846	      0.26570995	     35.37493041	     18.86314661	      0.00000000	     -4.03328711	     -4.34366997	     13.45033885	      0.40409914	      0.00705286	     24.18027516	    -14.32697156	      0.00000000	     -0.25075954	      0.27715046	      1.00028564	     -0.46568554	      0.36861011	      1.06280349	     -0.41197285	      0.67386363	      1.06280349	     -0.28659308	      0.67386363	      0.87524994	     -0.23285531	      0.56516522	      0.81273208	     -0.14328400	      0.42930606	      0.75021423	     -1.79115032	      3.13518145	      5.56328865	      0.00000000	      0.00000000	     13.49449232	     -6.06206988	     -9.28842656	      6.51922162	     -8.27115831	     37.94094410	     59.28028470	     84.47222854	      2.72438380	      9.15601671	      6.52855269	     -7.82531814	     37.39505178	     63.37904051	     65.01147346	    -11.20309724	     22.27174377
      0.05000000	     -0.10117268	     -7.27020317	     92.27965874	      0.31447928	      0.92036537	      0.66025172	      2.34770461	      1.65936060	    -10.10128959	     15.03648515	      0.26243617	     35.22429104	     18.89643474	      0.00000000	     -4.03642050	     -4.26758979	     12.93524146	      0.44418849	      0.00775255	     23.77160395	    -14.46828893	      0.00000000	     -0.23283328	      0.28637724	      1.00638553	     -0.43239469	      0.38088172	      1.06928462	     -0.38252180	      0.69629761	      1.06928462	     -0.26610516	      0.69629761	      0.88058734	     -0.21620899	      0.58398046	      0.81768824	     -0.13304094	      0.44359834	      0.75478915	     -1.66310486	      3.23955656	      5.59721440	      0.00000000	      0.00000000	     13.60342354	     -6.30287582	     -9.20102631	      6.48787267	     -7.91068386	     38.17478216	     58.19422466	     84.53681976	      2.78193960	      9.49082713	      6.57504320	     -7.78313014	     38.08144696	     62.39060355	     64.70466528	    -11.29106078	     22.43647498
